<svg width="417" height="513" viewBox="0 0 417 513" fill="none" xmlns="http://www.w3.org/2000/svg">
<path d="M51.6209 0.253909C52.8853 0.250068 54.1497 0.246227 55.4524 0.242269C56.853 0.243049 58.2537 0.243928 59.6544 0.244895C61.1442 0.24231 62.634 0.239297 64.1238 0.235891C68.2188 0.227827 72.3138 0.226032 76.4088 0.225294C80.8247 0.223442 85.2406 0.215895 89.6564 0.209159C99.3111 0.19558 108.966 0.189552 118.62 0.185148C124.647 0.182386 130.673 0.178148 136.699 0.173644C153.379 0.161454 170.059 0.151153 186.739 0.147769C187.806 0.147549 188.874 0.14733 189.974 0.147103C191.043 0.146885 192.113 0.146667 193.216 0.146442C195.384 0.145998 197.552 0.145552 199.72 0.145102C200.796 0.144881 201.871 0.144659 202.979 0.144431C220.419 0.14048 237.859 0.123016 255.298 0.0997428C273.197 0.0760494 291.095 0.0635679 308.994 0.0624008C319.046 0.0614831 329.098 0.0557063 339.15 0.0375812C347.707 0.0222077 356.263 0.0170436 364.819 0.0253193C369.186 0.0292351 373.553 0.0282509 377.921 0.014262C381.916 0.00157918 385.912 0.00267071 389.908 0.0148527C391.355 0.0168195 392.803 0.0136864 394.25 0.00500833C396.214 -0.00602471 398.178 0.00316277 400.143 0.0133999C401.235 0.0128028 402.327 0.0122057 403.452 0.0115905C408.076 0.601453 410.601 2.49626 413.632 5.94784C416.631 10.1259 416.525 13.296 416.516 18.2984C416.518 19.1296 416.521 19.9608 416.523 20.8172C416.53 23.6327 416.529 26.4482 416.529 29.2637C416.532 31.2905 416.536 33.3174 416.54 35.3442C416.55 40.9377 416.554 46.5312 416.556 52.1247C416.56 58.148 416.57 64.1713 416.579 70.1946C416.598 84.064 416.608 97.9335 416.616 111.803C416.62 118.654 416.626 125.505 416.631 132.356C416.649 155.799 416.664 179.242 416.671 202.685C416.672 204.157 416.672 205.63 416.673 207.102C416.673 207.832 416.673 208.562 416.673 209.314C416.674 213.013 416.676 216.713 416.677 220.412C416.677 221.146 416.677 221.88 416.678 222.636C416.686 246.444 416.709 270.251 416.741 294.059C416.776 319.219 416.796 344.378 416.799 369.538C416.799 372.299 416.8 375.06 416.8 377.82C416.8 378.5 416.8 379.18 416.801 379.88C416.803 390.831 416.819 401.781 416.839 412.731C416.859 423.734 416.864 434.736 416.855 445.739C416.851 451.702 416.853 457.665 416.872 463.628C416.89 469.084 416.889 474.539 416.873 479.994C416.871 481.971 416.875 483.949 416.887 485.926C416.902 488.607 416.892 491.287 416.877 493.969C416.892 495.128 416.892 495.128 416.908 496.311C416.829 502.404 414.693 505.705 410.819 510.198C407.669 512.8 404.298 512.513 400.411 512.52C399.156 512.524 397.9 512.528 396.607 512.533C395.206 512.533 393.805 512.533 392.404 512.533C390.921 512.536 389.439 512.54 387.956 512.544C383.872 512.554 379.788 512.557 375.704 512.56C371.303 512.564 366.902 512.574 362.501 512.582C351.865 512.602 341.229 512.612 330.593 512.621C325.584 512.625 320.575 512.631 315.566 512.636C298.912 512.653 282.257 512.668 265.603 512.675C261.28 512.677 256.957 512.679 252.634 512.68C251.559 512.681 250.485 512.681 249.378 512.682C231.982 512.69 214.586 512.716 197.191 512.748C179.328 512.781 161.466 512.799 143.604 512.802C133.576 512.805 123.548 512.813 113.52 512.839C104.977 512.861 96.4345 512.869 87.8915 512.859C83.5354 512.854 79.1796 512.856 74.8236 512.876C70.8284 512.893 66.8337 512.892 62.8386 512.877C61.4004 512.874 59.9621 512.879 58.5239 512.891C41.1606 513.026 27.4732 507.864 14.7763 496.006C8.40988 489.038 3.55997 480.602 1.38178 471.385C1.20974 470.666 1.0377 469.948 0.860453 469.207C0.289737 465.843 0.253709 462.655 0.250353 459.242C0.2483 458.53 0.246246 457.818 0.244131 457.085C0.238465 454.695 0.23992 452.304 0.241339 449.913C0.238755 448.184 0.235743 446.455 0.232336 444.727C0.224265 439.97 0.222477 435.214 0.221739 430.458C0.219889 425.331 0.21234 420.203 0.205603 415.075C0.192018 403.86 0.185996 392.645 0.181593 381.43C0.178831 374.428 0.174593 367.425 0.170088 360.423C0.157895 341.036 0.147596 321.648 0.144213 302.261C0.143993 301.02 0.143775 299.779 0.143549 298.501C0.143331 297.257 0.14311 296.013 0.142885 294.731C0.142442 292.21 0.141996 289.69 0.141546 287.169C0.141325 285.919 0.141103 284.668 0.140875 283.38C0.136927 263.122 0.119474 242.863 0.0961859 222.605C0.0724706 201.807 0.0600098 181.009 0.0588438 160.211C0.0579271 148.533 0.0521778 136.855 0.0340254 125.178C0.0186219 115.234 0.0135069 105.289 0.021765 95.345C0.0256706 90.2723 0.0247444 85.1997 0.0107062 80.127C-0.00203756 75.4795 -0.000830478 70.8322 0.0112974 66.1848C0.0132536 64.5071 0.0101783 62.8294 0.0014517 61.1517C-0.0865909 43.0754 3.81185 28.2455 16.6747 14.8619C26.4011 5.9636 38.3706 0.269034 51.6209 0.253909ZM37.3818 38.3853C33.1038 43.7735 31.2563 48.4277 31.2587 55.3299C31.2567 56.5794 31.2548 57.829 31.2527 59.1164C31.2556 60.5107 31.2585 61.9049 31.2615 63.2992C31.2611 64.7743 31.2602 66.2495 31.2589 67.7246C31.2567 71.7882 31.2607 75.8518 31.2657 79.9154C31.27 84.2937 31.2686 88.672 31.2678 93.0503C31.2673 100.639 31.2704 108.228 31.2761 115.817C31.2842 126.79 31.2868 137.763 31.288 148.735C31.2902 166.536 31.2969 184.337 31.3063 202.139C31.3155 219.433 31.3226 236.728 31.3268 254.023C31.3271 255.089 31.3274 256.154 31.3276 257.252C31.3289 262.598 31.3302 267.943 31.3315 273.289C31.3418 317.654 31.3594 362.02 31.3818 406.385C32.7914 405.97 32.7914 405.97 34.2294 405.546C50.2957 401.361 62.6044 401.959 80.3818 401.385C80.3818 278.955 80.3818 156.525 80.3818 30.3853C57.0158 28.9654 57.0158 28.9654 37.3818 38.3853ZM111.382 30.3853C111.382 152.815 111.382 275.245 111.382 401.385C201.802 401.385 292.222 401.385 385.382 401.385C385.382 278.955 385.382 156.525 385.382 30.3853C294.962 30.3853 204.542 30.3853 111.382 30.3853ZM36.3818 441.385C31.5087 448.306 30.1364 455.025 31.3818 463.385C33.7966 471.156 39.3683 476.474 46.3818 480.385C53.7505 482.856 61.3094 482.661 68.9921 482.626C70.3611 482.627 71.7301 482.628 73.099 482.631C76.8412 482.635 80.5833 482.628 84.3256 482.617C88.3684 482.609 92.4112 482.612 96.454 482.613C103.452 482.614 110.45 482.608 117.448 482.597C127.566 482.581 137.684 482.575 147.802 482.573C164.218 482.568 180.635 482.555 197.052 482.536C212.996 482.518 228.941 482.504 244.885 482.495C245.868 482.495 246.852 482.494 247.865 482.494C252.798 482.491 257.731 482.488 262.665 482.486C303.57 482.465 344.476 482.43 385.382 482.385C385.382 465.885 385.382 449.385 385.382 432.385C343.113 432.318 300.844 432.264 258.575 432.232C253.584 432.228 248.594 432.225 243.603 432.221C242.113 432.219 242.113 432.219 240.593 432.218C224.507 432.205 208.421 432.181 192.335 432.154C175.829 432.126 159.323 432.109 142.817 432.103C132.632 432.099 122.447 432.086 112.262 432.062C105.278 432.046 98.2933 432.041 91.3088 432.045C87.2793 432.047 83.25 432.044 79.2206 432.028C75.5285 432.013 71.8366 432.012 68.1444 432.023C66.1827 432.025 64.2209 432.012 62.2592 431.998C52.1099 432.05 43.2587 433.314 36.3818 441.385Z" fill="black"/>
<path d="M178.473 160.245C179.747 160.239 181.021 160.234 182.335 160.228C183.75 160.226 185.165 160.225 186.58 160.224C188.068 160.22 189.557 160.215 191.045 160.209C195.09 160.196 199.136 160.19 203.182 160.185C205.709 160.182 208.237 160.178 210.764 160.174C218.673 160.16 226.582 160.15 234.49 160.146C243.619 160.142 252.748 160.124 261.877 160.095C268.933 160.074 275.99 160.064 283.046 160.062C287.261 160.061 291.475 160.055 295.689 160.038C299.655 160.021 303.62 160.019 307.585 160.028C309.039 160.029 310.492 160.024 311.946 160.014C313.934 160.002 315.922 160.009 317.91 160.018C319.577 160.016 319.577 160.016 321.278 160.013C325.506 160.52 328.869 162.006 332.026 164.885C335.465 169.302 336.809 172.517 336.726 178.19C336.099 182.188 334.155 185.477 331.382 188.385C327.04 190.938 323.87 191.762 318.854 191.773C317.559 191.783 316.263 191.793 314.929 191.803C313.506 191.799 312.082 191.794 310.659 191.789C309.151 191.795 307.642 191.802 306.134 191.81C302.047 191.828 297.961 191.827 293.874 191.821C290.459 191.818 287.045 191.824 283.63 191.83C275.574 191.844 267.519 191.843 259.463 191.831C251.157 191.82 242.851 191.834 234.545 191.861C227.408 191.883 220.271 191.89 213.133 191.884C208.873 191.88 204.613 191.883 200.353 191.9C196.347 191.915 192.342 191.912 188.336 191.893C186.868 191.889 185.4 191.892 183.932 191.903C181.925 191.916 179.917 191.902 177.909 191.887C176.787 191.886 175.665 191.886 174.508 191.886C169.651 191.108 166.576 188.515 163.069 185.198C160.727 181.295 160.064 177.923 160.382 173.385C161.979 168.049 164.657 164.414 169.382 161.385C172.646 160.297 175.036 160.254 178.473 160.245Z" fill="black"/>
<path d="M191.29 241.238C192.846 241.227 192.846 241.227 194.433 241.217C195.576 241.214 196.719 241.211 197.897 241.208C199.097 241.202 200.297 241.195 201.533 241.188C205.519 241.169 209.505 241.157 213.491 241.147C214.864 241.143 216.236 241.139 217.609 241.135C224.057 241.116 230.506 241.101 236.955 241.093C244.397 241.083 251.838 241.057 259.28 241.017C265.033 240.986 270.786 240.972 276.539 240.968C279.974 240.966 283.409 240.957 286.844 240.932C290.68 240.904 294.514 240.908 298.35 240.915C300.052 240.896 300.052 240.896 301.788 240.877C307.969 240.918 311.688 241.225 316.382 245.385C319.237 248.592 320.633 252.107 320.882 256.385C320.633 260.664 319.237 264.179 316.382 267.385C310.827 272.293 305.596 271.954 298.413 271.903C296.612 271.913 296.612 271.913 294.775 271.924C291.494 271.939 288.213 271.935 284.932 271.923C281.491 271.913 278.051 271.922 274.61 271.928C268.834 271.935 263.057 271.926 257.28 271.907C250.61 271.885 243.941 271.892 237.271 271.914C231.535 271.932 225.799 271.935 220.062 271.924C216.641 271.918 213.219 271.917 209.797 271.931C205.981 271.941 202.166 271.925 198.351 271.903C196.658 271.915 196.658 271.915 194.931 271.927C188.775 271.861 185.047 271.544 180.382 267.385C177.27 263.523 176.232 259.306 176.382 254.385C177.982 249.14 180.265 245.974 184.382 242.385C186.86 241.146 188.516 241.251 191.29 241.238Z" fill="black"/>
</svg>
