<svg width="512" height="512" viewBox="0 0 512 512" fill="none" xmlns="http://www.w3.org/2000/svg">
<path d="M178.033 25.8548C179.909 25.8518 181.785 25.8484 183.661 25.8446C188.72 25.8359 193.778 25.8335 198.836 25.8328C202.01 25.8321 205.183 25.83 208.356 25.8273C219.464 25.8181 230.571 25.814 241.678 25.8148C251.971 25.8154 262.264 25.8048 272.556 25.789C281.442 25.7759 290.327 25.7706 299.213 25.7712C304.498 25.7715 309.783 25.7687 315.068 25.758C401.08 25.5962 401.08 25.5962 427.691 50.6719C448.018 71.1706 452.383 100.857 453.553 128.511C453.617 129.998 453.617 129.998 453.681 131.516C454.14 143.285 454.148 155.05 454.145 166.826C454.148 169.322 454.152 171.818 454.155 174.314C454.163 180.329 454.166 186.343 454.167 192.357C454.168 197.251 454.17 202.146 454.173 207.04C454.182 220.979 454.186 234.919 454.185 248.858C454.185 249.978 454.185 249.978 454.185 251.121C454.185 251.869 454.185 252.617 454.185 253.388C454.185 265.525 454.194 277.662 454.208 289.799C454.223 302.322 454.23 314.846 454.229 327.369C454.229 334.376 454.231 341.383 454.242 348.39C454.252 354.975 454.252 361.561 454.245 368.146C454.243 370.549 454.246 372.953 454.252 375.356C454.381 429.96 454.381 429.96 435.43 449.805C426.165 458.176 416.436 460.636 404.121 460.301C386.511 459.312 372.523 448.241 360.438 436.403C358.332 434.349 356.177 432.354 354 430.375C353.34 429.764 352.68 429.153 352 428.523C346.56 424.38 340.589 424.12 334 425C324.192 428.668 317.983 439.19 312.125 447.313C298.716 465.656 285.869 482.266 262 486C247.837 487.344 234.507 483.746 223.34 474.891C215.101 467.683 208.453 459.471 202.062 450.625C192.177 435.419 192.177 435.419 178 425C175.456 424.61 175.456 424.61 172.75 424.625C171.858 424.597 170.966 424.568 170.047 424.539C162.627 425.662 157.784 429.739 152.875 435.125C139.833 448.722 123.458 459.792 104.125 460.313C91.7021 460.087 82.5177 455.942 73.875 447C60.3823 430.873 57.8349 410.037 57.8663 389.753C57.864 388.664 57.8618 387.575 57.8594 386.452C57.8531 382.824 57.8539 379.196 57.8547 375.568C57.8517 372.957 57.8483 370.346 57.8446 367.735C57.8363 361.388 57.8335 355.042 57.833 348.696C57.8325 343.526 57.8304 338.357 57.8273 333.188C57.8185 318.488 57.8138 303.788 57.8146 289.088C57.8146 288.296 57.8147 287.505 57.8147 286.69C57.8147 285.897 57.8148 285.105 57.8148 284.289C57.8152 271.487 57.8057 258.684 57.7916 245.882C57.7771 232.693 57.7703 219.504 57.7712 206.315C57.7715 198.929 57.7688 191.542 57.758 184.155C57.7488 177.858 57.7468 171.56 57.7535 165.263C57.7567 162.062 57.7559 158.861 57.7481 155.66C57.5749 78.6837 57.5749 78.6837 83.707 51.2384C108.619 26.9208 145.234 25.8442 178.033 25.8548ZM148.895 59.8785C148.055 59.9545 147.214 60.0305 146.348 60.1087C130.952 61.6643 116.167 65.2619 105.125 76.7501C87.8678 98.4143 90.6962 133.844 90.7253 159.759C90.721 162.356 90.7158 164.952 90.7099 167.549C90.6973 173.807 90.6953 180.066 90.6977 186.324C90.6995 191.416 90.6977 196.508 90.6934 201.601C90.6928 202.331 90.6922 203.061 90.6916 203.814C90.6904 205.298 90.6892 206.782 90.688 208.266C90.6772 222.113 90.6793 235.96 90.6854 249.807C90.6906 262.436 90.6793 275.065 90.6603 287.694C90.6409 300.72 90.6326 313.747 90.6364 326.773C90.6383 334.063 90.6359 341.353 90.6217 348.644C90.6085 355.494 90.6111 362.345 90.6241 369.195C90.6265 371.697 90.6238 374.199 90.6155 376.701C89.692 402.857 89.692 402.857 99.75 426.063C103.362 427.567 106.371 427.099 110 426C119.551 421.771 126.94 413.999 134.27 406.758C146.404 395.186 160.625 391.356 176.973 391.691C191.024 392.325 202.881 398.973 212.492 409.031C217.795 415.309 222.524 422.037 227.333 428.695C237.501 444.372 237.501 444.372 253 453C260.056 453.078 265.525 451.23 270.719 446.402C277.021 439.686 282.233 431.985 287.652 424.559C298.312 409.981 309.159 397.23 327.297 392.387C343.327 390.093 358.731 392.263 372 402C376.767 405.935 381.197 410.132 385.438 414.625C391.042 420.349 399.421 426.428 407.5 427.438C411.03 427.323 411.03 427.323 413.188 425.125C422.703 408.718 421.29 389.578 421.243 371.216C421.244 368.747 421.246 366.278 421.249 363.809C421.253 357.833 421.248 351.858 421.239 345.882C421.228 338.897 421.229 331.913 421.229 324.928C421.23 312.445 421.22 299.963 421.206 287.481C421.192 275.421 421.185 263.361 421.185 251.301C421.185 250.188 421.185 250.188 421.185 249.053C421.185 247.941 421.185 247.941 421.186 246.808C421.186 233.01 421.18 219.212 421.171 205.415C421.168 200.569 421.167 195.723 421.167 190.877C421.166 184.325 421.16 177.773 421.15 171.222C421.147 168.835 421.146 166.448 421.146 164.061C421.148 152.716 421.061 141.39 420.569 130.055C420.514 128.759 420.514 128.759 420.458 127.437C419.524 108.343 417.158 87.1339 403.008 73.0118C384.79 57.4299 355.77 58.8475 333.232 58.8548C331.373 58.8518 329.514 58.8484 327.654 58.8446C322.637 58.8359 317.62 58.8335 312.603 58.8328C309.457 58.8321 306.311 58.83 303.165 58.8273C292.157 58.8181 281.15 58.814 270.142 58.8148C259.935 58.8154 249.728 58.8048 239.521 58.789C230.714 58.7759 221.908 58.7706 213.101 58.7712C207.861 58.7715 202.621 58.7687 197.381 58.758C192.443 58.7482 187.505 58.7484 182.567 58.7556C180.772 58.7566 178.978 58.7543 177.184 58.7482C167.708 58.718 158.336 59.01 148.895 59.8785Z" fill="black"/>
<path d="M241.18 217.498C242.979 217.49 242.979 217.49 244.814 217.482C248.083 217.472 251.351 217.479 254.62 217.496C258.052 217.51 261.484 217.503 264.916 217.5C270.677 217.497 276.437 217.51 282.198 217.534C288.845 217.56 295.492 217.562 302.139 217.55C308.552 217.539 314.964 217.546 321.377 217.56C324.098 217.565 326.819 217.565 329.54 217.561C333.343 217.558 337.146 217.574 340.949 217.596C342.071 217.592 343.193 217.587 344.349 217.582C350.976 217.645 356.553 217.963 361.742 222.535C366.205 228.552 366.72 232.55 366 240C364.544 244.807 361.639 247.795 357.231 250.184C352.543 251.899 347.574 251.543 342.642 251.502C340.797 251.51 340.797 251.51 338.915 251.518C335.557 251.529 332.2 251.521 328.843 251.504C325.321 251.491 321.799 251.497 318.277 251.501C312.365 251.503 306.453 251.49 300.541 251.467C293.715 251.44 286.889 251.438 280.063 251.45C273.483 251.461 266.904 251.455 260.324 251.44C257.529 251.435 254.735 251.435 251.94 251.44C248.036 251.445 244.132 251.426 240.228 251.404C238.496 251.411 238.496 251.411 236.728 251.418C230.276 251.358 225.343 251.049 220.355 246.5C216.671 241.768 215.568 238.303 215.664 232.414C216.246 228.231 217.982 224.936 221 222C227.802 217.779 233.28 217.43 241.18 217.498Z" fill="black"/>
<path d="M233.135 132.853C234.198 132.846 235.26 132.839 236.355 132.831C237.521 132.828 238.687 132.826 239.888 132.823C241.116 132.816 242.343 132.81 243.609 132.803C247.682 132.783 251.755 132.772 255.828 132.762C257.232 132.758 258.635 132.754 260.039 132.749C266.635 132.73 273.231 132.716 279.826 132.708C287.433 132.698 295.039 132.672 302.645 132.631C308.529 132.601 314.412 132.586 320.296 132.583C323.808 132.581 327.32 132.572 330.832 132.547C334.753 132.519 338.674 132.523 342.595 132.53C344.331 132.511 344.331 132.511 346.103 132.491C352.629 132.533 356.728 133.038 362 137C365.971 141.99 366.638 146.077 366.387 152.414C365.644 157.383 363.069 160.011 359.5 163.312C355.664 165.902 352.431 166.126 347.865 166.147C346.828 166.154 345.791 166.161 344.722 166.169C343.589 166.172 342.457 166.174 341.29 166.177C340.093 166.184 338.896 166.19 337.662 166.197C333.697 166.217 329.731 166.228 325.766 166.238C324.398 166.242 323.029 166.246 321.661 166.251C315.233 166.27 308.804 166.284 302.376 166.292C294.968 166.302 287.561 166.328 280.153 166.369C274.419 166.399 268.685 166.414 262.95 166.417C259.529 166.419 256.109 166.428 252.688 166.453C248.868 166.478 245.048 166.477 241.228 166.47C240.103 166.483 238.979 166.496 237.82 166.509C230.424 166.46 224.651 165.552 219.125 160.176C216.052 155.087 215.01 150.918 216 145C217.825 139.727 220.607 137.203 225 134C227.999 133 230.001 132.867 233.135 132.853Z" fill="black"/>
<path d="M181.875 214.25C188.534 217.979 192.054 221.811 194.75 229C195.649 236.188 194.742 241.948 190.676 247.957C186.779 252.815 182.946 255.659 176.563 256.398C175.387 256.391 174.211 256.383 173 256.375C171.824 256.383 170.649 256.39 169.438 256.398C163.139 255.668 159.032 252.774 155 248C150.816 242.017 149.982 236.186 151 229C152.797 222.821 156.658 218.487 162 215C168.13 212.06 175.505 211.694 181.875 214.25Z" fill="black"/>
<path d="M182.523 128.906C188.029 132.197 192.007 136.4 194.312 142.437C195.775 150.014 195.116 156.245 190.863 162.734C187.333 167.233 183.566 169.861 178 171C170.853 171.677 164.879 171.399 159 167C154.557 162.824 151.527 158.614 150.629 152.457C150.449 145.291 151.761 139.867 156 134C162.996 127.341 173.41 125.633 182.523 128.906Z" fill="black"/>
</svg>
