<svg width="222" height="221" viewBox="0 0 222 221" fill="none" xmlns="http://www.w3.org/2000/svg">
<path d="M179.75 18.6833H166.15V5.08333C166.15 2.47049 164.03 0.35 161.417 0.35C158.804 0.35 156.683 2.47049 156.683 5.08333V18.6833H65.3167V5.08333C65.3167 2.47049 63.1962 0.35 60.5833 0.35C57.9705 0.35 55.85 2.47049 55.85 5.08333V18.6833H42.25C19.4247 18.6833 0.85 37.258 0.85 60.0833V179.25C0.85 202.075 19.4247 220.65 42.25 220.65H179.75C202.575 220.65 221.15 202.075 221.15 179.25V60.0833C221.15 37.258 202.575 18.6833 179.75 18.6833ZM42.25 28.15H179.75C197.359 28.15 211.683 42.4745 211.683 60.0833V73.6833H10.3167V60.0833C10.3167 42.4745 24.6412 28.15 42.25 28.15ZM42.25 211.183C24.6412 211.183 10.3167 196.859 10.3167 179.25V83.15H211.683V179.25C211.683 196.859 197.359 211.183 179.75 211.183H42.25ZM170.583 128.983C173.196 128.983 175.317 126.863 175.317 124.25C175.317 121.637 173.196 119.517 170.583 119.517H51.4167C48.8038 119.517 46.6833 121.637 46.6833 124.25C46.6833 126.863 48.8038 128.983 51.4167 128.983H170.583ZM106.417 174.817C109.03 174.817 111.15 172.696 111.15 170.083C111.15 167.47 109.03 165.35 106.417 165.35H51.4167C48.8038 165.35 46.6833 167.47 46.6833 170.083C46.6833 172.696 48.8038 174.817 51.4167 174.817H106.417Z" fill="#424242" stroke="#424242" stroke-width="0.3"/>
</svg>
