<svg width="28" height="31" viewBox="0 0 28 31" fill="none" xmlns="http://www.w3.org/2000/svg">
<g filter="url(#filter0_d_190_2165)">
<path d="M19.9375 4.43333H18.9V3.39583C18.9 3.09449 18.6555 2.85 18.3542 2.85C18.0528 2.85 17.8083 3.09449 17.8083 3.39583V4.43333H10.1917V3.39583C10.1917 3.09449 9.94718 2.85 9.64583 2.85C9.34449 2.85 9.1 3.09449 9.1 3.39583V4.43333H8.0625C6.01553 4.43333 4.35 6.09887 4.35 8.14583V18.4375C4.35 20.4845 6.01553 22.15 8.0625 22.15H19.9375C21.9845 22.15 23.65 20.4845 23.65 18.4375V8.14583C23.65 6.09887 21.9845 4.43333 19.9375 4.43333ZM8.0625 5.525H19.9375C21.3826 5.525 22.5583 6.70076 22.5583 8.14583V9.18333H5.44167V8.14583C5.44167 6.70076 6.61743 5.525 8.0625 5.525ZM8.0625 21.0583C6.61743 21.0583 5.44167 19.8826 5.44167 18.4375V10.275H22.5583V18.4375C22.5583 19.8826 21.3826 21.0583 19.9375 21.0583H8.0625ZM19.1458 14.2333C19.4472 14.2333 19.6917 13.9888 19.6917 13.6875C19.6917 13.3862 19.4472 13.1417 19.1458 13.1417H8.85417C8.55282 13.1417 8.30833 13.3862 8.30833 13.6875C8.30833 13.9888 8.55282 14.2333 8.85417 14.2333H19.1458ZM13.6042 18.1917C13.9055 18.1917 14.15 17.9472 14.15 17.6458C14.15 17.3445 13.9055 17.1 13.6042 17.1H8.85417C8.55282 17.1 8.30833 17.3445 8.30833 17.6458C8.30833 17.9472 8.55282 18.1917 8.85417 18.1917H13.6042Z" fill="#424242" stroke="#424242" stroke-width="0.3"/>
</g>
<defs>
<filter id="filter0_d_190_2165" x="-2" y="0.5" width="32" height="32" filterUnits="userSpaceOnUse" color-interpolation-filters="sRGB">
<feFlood flood-opacity="0" result="BackgroundImageFix"/>
<feColorMatrix in="SourceAlpha" type="matrix" values="0 0 0 0 0 0 0 0 0 0 0 0 0 0 0 0 0 0 127 0" result="hardAlpha"/>
<feOffset dy="4"/>
<feGaussianBlur stdDeviation="2"/>
<feComposite in2="hardAlpha" operator="out"/>
<feColorMatrix type="matrix" values="0 0 0 0 0 0 0 0 0 0 0 0 0 0 0 0 0 0 0.25 0"/>
<feBlend mode="normal" in2="BackgroundImageFix" result="effect1_dropShadow_190_2165"/>
<feBlend mode="normal" in="SourceGraphic" in2="effect1_dropShadow_190_2165" result="shape"/>
</filter>
</defs>
</svg>
