<svg width="21" height="21" viewBox="0 0 21 21" fill="none" xmlns="http://www.w3.org/2000/svg">
<path d="M4.375 4.375H9.625C10.1062 4.375 10.5 3.98125 10.5 3.5C10.5 3.01875 10.1062 2.625 9.625 2.625H4.375C3.4125 2.625 2.625 3.4125 2.625 4.375V16.625C2.625 17.5875 3.4125 18.375 4.375 18.375H9.625C10.1062 18.375 10.5 17.9812 10.5 17.5C10.5 17.0188 10.1062 16.625 9.625 16.625H4.375V4.375Z" fill="#FF5652"/>
<path d="M18.0687 10.1938L15.6275 7.7525C15.5666 7.68999 15.4885 7.64705 15.4031 7.62919C15.3177 7.61133 15.2289 7.61935 15.1481 7.65224C15.0673 7.68513 14.9982 7.74138 14.9495 7.8138C14.9008 7.88622 14.8749 7.97151 14.875 8.05875V9.625H8.75C8.26875 9.625 7.875 10.0188 7.875 10.5C7.875 10.9813 8.26875 11.375 8.75 11.375H14.875V12.9413C14.875 13.335 15.3475 13.5275 15.6188 13.2475L18.06 10.8063C18.235 10.64 18.235 10.36 18.0687 10.1938Z" fill="#FF5652"/>
</svg>
