<svg width="24" height="18" viewBox="0 0 24 18" fill="none" xmlns="http://www.w3.org/2000/svg">
<path d="M0 3.68182C0 2.70534 0.406376 1.76885 1.12973 1.07838C1.85309 0.387905 2.83417 0 3.85714 0H20.1429C21.1658 0 22.1469 0.387905 22.8703 1.07838C23.5936 1.76885 24 2.70534 24 3.68182V14.3182C24 15.2947 23.5936 16.2311 22.8703 16.9216C22.1469 17.6121 21.1658 18 20.1429 18H3.85714C2.83417 18 1.85309 17.6121 1.12973 16.9216C0.406376 16.2311 0 15.2947 0 14.3182V3.68182ZM3.85714 1.63636C3.28882 1.63636 2.74378 1.85187 2.34191 2.23546C1.94005 2.61906 1.71429 3.13933 1.71429 3.68182V4.90909H22.2857V3.68182C22.2857 3.13933 22.0599 2.61906 21.6581 2.23546C21.2562 1.85187 20.7112 1.63636 20.1429 1.63636H3.85714ZM1.71429 14.3182C1.71429 14.8607 1.94005 15.3809 2.34191 15.7645C2.74378 16.1481 3.28882 16.3636 3.85714 16.3636H20.1429C20.7112 16.3636 21.2562 16.1481 21.6581 15.7645C22.0599 15.3809 22.2857 14.8607 22.2857 14.3182V6.54545H1.71429V14.3182ZM16.2857 11.4545H18.8571C19.0845 11.4545 19.3025 11.5407 19.4632 11.6942C19.624 11.8476 19.7143 12.0557 19.7143 12.2727C19.7143 12.4897 19.624 12.6978 19.4632 12.8513C19.3025 13.0047 19.0845 13.0909 18.8571 13.0909H16.2857C16.0584 13.0909 15.8404 13.0047 15.6796 12.8513C15.5189 12.6978 15.4286 12.4897 15.4286 12.2727C15.4286 12.0557 15.5189 11.8476 15.6796 11.6942C15.8404 11.5407 16.0584 11.4545 16.2857 11.4545Z" fill="#424242"/>
</svg>
